PathFileType	4	(X/Y/Z)	c:/Users/goper/Files/vsCode/490R/osim_files/A03/A03_Static03.trc
DataRate	CameraRate	NumFrames	NumMarkers	Units                	OrigDataRate	OrigDataStartFrame	OrigNumFrames
250.00	250.00	4	36	mm	250.0	1	1993
                Frame#	Time	LPSIS			LASIS			LTH1			LTH2			LTH3			LTH4			LLFE			LMFE			LSH1			LSH2			LSH3			LSH4			LLMAL			LMMAL			LCAL			LMTP5			LTOE			LMTP1			RPSIS			RASIS			RTH1			RTH2			RTH3			RTH4			RLFE			RMFE			RSH1			RSH2			RSH3			RSH4			RLMAL			RMMAL			RCAL			RMTP1			RTOE			RMTP5		
		X1	Y1	Z1	X2	Y2	Z2	X3	Y3	Z3	X4	Y4	Z4	X5	Y5	Z5	X6	Y6	Z6	X7	Y7	Z7	X8	Y8	Z8	X9	Y9	Z9	X10	Y10	Z10	X11	Y11	Z11	X12	Y12	Z12	X13	Y13	Z13	X14	Y14	Z14	X15	Y15	Z15	X16	Y16	Z16	X17	Y17	Z17	X18	Y18	Z18	X19	Y19	Z19	X20	Y20	Z20	X21	Y21	Z21	X22	Y22	Z22	X23	Y23	Z23	X24	Y24	Z24	X25	Y25	Z25	X26	Y26	Z26	X27	Y27	Z27	X28	Y28	Z28	X29	Y29	Z29	X30	Y30	Z30	X31	Y31	Z31	X32	Y32	Z32	X33	Y33	Z33	X34	Y34	Z34	X35	Y35	Z35	X36	Y36	Z36

1	0.00000	-341.90619	1054.98438	435.34961	-96.07734	990.51733	316.56894	-166.87358	645.56097	247.27216	-156.84016	603.59155	244.50275	-105.06853	650.59485	261.97498	-106.13422	606.82025	258.53732	-159.81021	557.99719	250.12115	-134.13907	529.96460	402.79425	-214.78609	478.05844	244.70578	-218.69110	429.81424	241.21519	-153.33435	464.62244	244.96188	-168.27351	419.08450	245.41042	-261.47940	105.03291	236.99924	-244.38396	104.39713	329.68924	-329.47293	85.03159	294.31244	-117.01512	41.47447	207.95633	-80.50654	68.91956	274.62442	-107.13838	48.26416	321.91171	-344.11923	1062.35254	515.15710	-101.65776	987.93634	621.58740	-204.94026	630.50153	691.72955	-199.29268	586.00262	689.80988	-143.86945	631.98663	696.07050	-144.62070	587.31659	693.84070	-178.19133	546.72449	682.86700	-119.63091	538.43121	569.77289	-236.32153	486.80701	680.98297	-247.00435	448.52469	695.71649	-178.71210	471.65466	695.99664	-197.82092	430.70251	708.74023	-278.15579	130.48724	689.47418	-234.19562	129.26883	612.79498	-334.09137	86.73309	637.30212	-120.76527	48.23069	609.86578	-93.86963	70.85667	660.17065	-129.73326	41.12379	728.58972
2	0.00400	-341.89069	1054.96716	435.31277	-95.70635	990.65735	316.39932	-166.81639	645.57446	247.23634	-156.79767	603.61322	244.47597	-105.04596	650.56934	261.95514	-106.12045	606.81458	258.53046	-159.78052	558.00067	250.08914	-134.14229	529.94061	402.77878	-214.77127	478.07047	244.69244	-218.63538	429.79919	241.16280	-153.35553	464.59201	244.95206	-168.26030	419.09903	245.40140	-261.68945	105.16562	236.79794	-244.36557	104.39580	329.69650	-329.45456	85.03825	294.26703	-117.00290	41.50946	207.95364	-80.51650	68.90316	274.61673	-107.14064	48.24891	321.91336	-344.06244	1062.35522	515.09113	-101.64744	987.93872	621.58856	-204.95374	630.50610	691.70056	-199.29994	586.02655	689.78174	-143.89336	631.99908	696.07068	-144.66765	587.31915	693.84174	-178.22060	546.73340	682.83612	-119.62987	538.44208	569.78796	-236.30394	486.82071	680.94971	-246.99507	448.54178	695.69116	-178.72905	471.68301	695.99915	-197.83592	430.71423	708.70685	-278.16977	130.49899	689.46210	-234.17760	129.28387	612.81104	-334.08832	86.75275	637.30585	-120.78653	48.22669	609.85114	-93.85616	70.85789	660.15631	-129.73479	41.11358	728.60425
3	0.00800	-341.85193	1054.97705	435.23627	-95.68230	990.62390	316.39914	-166.81178	645.55164	247.23325	-156.77904	603.59802	244.46588	-105.01632	650.57593	261.94440	-106.07854	606.80591	258.51941	-159.76434	558.01581	250.06451	-134.12712	529.95398	402.76535	-214.75375	478.05341	244.68362	-218.63631	429.81281	241.15898	-153.33583	464.59875	244.92351	-168.25491	419.08432	245.37967	-261.48129	105.03121	236.98254	-244.39714	104.46299	329.73865	-329.46423	85.02529	294.28836	-116.99235	41.48907	207.94740	-80.60794	68.83619	274.59277	-107.15148	48.25192	321.91855	-344.02795	1062.35205	515.07587	-101.64720	987.94171	621.57031	-204.92882	630.50598	691.69391	-199.32133	586.02374	689.76678	-143.92296	631.99908	696.04315	-144.68747	587.33154	693.83868	-178.25821	546.75568	682.85291	-119.62863	538.44904	569.76044	-236.77654	486.89822	680.27045	-247.00742	448.57523	695.67944	-178.75233	471.68900	695.97418	-197.85056	430.69073	708.69073	-278.17456	130.50156	689.47589	-234.15869	129.27473	612.83112	-334.07831	86.74117	637.29712	-120.78509	48.22577	609.83972	-93.85509	70.82337	660.16919	-129.75652	41.09782	728.60760
4	0.01200	-341.81320	1054.95215	435.22333	-96.00843	990.47504	316.53244	-166.79861	645.58093	247.22812	-156.76027	603.59344	244.45309	-104.98344	650.56000	261.93228	-106.06548	606.79218	258.49939	-159.75055	557.98199	250.05371	-134.11522	529.92334	402.73886	-214.73384	478.04068	244.66531	-218.62219	429.80795	241.15135	-153.31421	464.60995	244.91548	-168.22702	419.08475	245.36064	-261.48761	105.02691	236.98305	-244.40129	104.44453	329.72958	-329.45816	85.00751	294.29257	-116.83821	41.60315	207.95708	-80.53548	68.91046	274.58237	-107.15304	48.25513	321.92239	-344.05051	1062.38464	515.02234	-101.65580	987.92383	621.55798	-204.97961	630.51965	691.66284	-199.34515	586.03003	689.74500	-143.94586	631.99847	696.03192	-144.71606	587.33685	693.82190	-178.28128	546.75995	682.82605	-119.63782	538.47717	569.73975	-236.75613	486.90808	680.24371	-247.03958	448.58383	695.63440	-178.74292	471.70679	695.97327	-197.90678	430.70306	708.69373	-278.15283	130.49590	689.48810	-234.16109	129.29471	612.84021	-334.06479	86.77131	637.31219	-120.75064	48.22381	609.85669	-93.85972	70.82744	660.17468	-129.76012	41.10349	728.60626
